<mxfile host="app.diagrams.net" modified="2023-09-01T14:01:31.613Z" agent="Mozilla/5.0 (X11; Linux x86_64; rv:103.0) Gecko/20100101 Firefox/103.0" etag="IS6E2TZ3OPpO9idpACHj" version="21.7.1" type="github">
  <diagram id="R2lEEEUBdFMjLlhIrx00" name="Page-1">
    <mxGraphModel dx="1434" dy="718" grid="1" gridSize="10" guides="1" tooltips="1" connect="1" arrows="1" fold="1" page="1" pageScale="1" pageWidth="850" pageHeight="1100" math="0" shadow="0" extFonts="Permanent Marker^https://fonts.googleapis.com/css?family=Permanent+Marker">
      <root>
        <mxCell id="0" />
        <mxCell id="1" parent="0" />
        <mxCell id="afZm7BKk1HQ2YWv7AoVP-1" value="Berçario" style="swimlane;childLayout=stackLayout;horizontal=1;startSize=50;horizontalStack=0;rounded=1;fontSize=14;fontStyle=0;strokeWidth=2;resizeParent=0;resizeLast=1;shadow=0;dashed=0;align=center;arcSize=4;whiteSpace=wrap;html=1;" vertex="1" parent="1">
          <mxGeometry x="40" y="40" width="160" height="120" as="geometry" />
        </mxCell>
        <mxCell id="afZm7BKk1HQ2YWv7AoVP-2" value="+Attribute1&#xa;+Attribute2&#xa;+Attribute3" style="align=left;strokeColor=none;fillColor=none;spacingLeft=4;fontSize=12;verticalAlign=top;resizable=0;rotatable=0;part=1;html=1;" vertex="1" parent="afZm7BKk1HQ2YWv7AoVP-1">
          <mxGeometry y="50" width="160" height="70" as="geometry" />
        </mxCell>
        <mxCell id="afZm7BKk1HQ2YWv7AoVP-3" value="Bebê" style="swimlane;childLayout=stackLayout;horizontal=1;startSize=50;horizontalStack=0;rounded=1;fontSize=14;fontStyle=0;strokeWidth=2;resizeParent=0;resizeLast=1;shadow=0;dashed=0;align=center;arcSize=4;whiteSpace=wrap;html=1;" vertex="1" parent="1">
          <mxGeometry x="40" y="280" width="160" height="120" as="geometry" />
        </mxCell>
        <mxCell id="afZm7BKk1HQ2YWv7AoVP-4" value="&lt;div&gt;Nome&lt;/div&gt;&lt;div&gt;Nascimento&lt;/div&gt;&lt;div&gt;Peso&lt;/div&gt;&lt;div&gt;Altura&lt;/div&gt;" style="align=left;strokeColor=none;fillColor=none;spacingLeft=4;fontSize=12;verticalAlign=top;resizable=0;rotatable=0;part=1;html=1;" vertex="1" parent="afZm7BKk1HQ2YWv7AoVP-3">
          <mxGeometry y="50" width="160" height="70" as="geometry" />
        </mxCell>
        <mxCell id="afZm7BKk1HQ2YWv7AoVP-7" style="edgeStyle=orthogonalEdgeStyle;rounded=0;orthogonalLoop=1;jettySize=auto;html=1;exitX=0.5;exitY=0;exitDx=0;exitDy=0;" edge="1" parent="1" source="afZm7BKk1HQ2YWv7AoVP-6" target="afZm7BKk1HQ2YWv7AoVP-2">
          <mxGeometry relative="1" as="geometry" />
        </mxCell>
        <mxCell id="afZm7BKk1HQ2YWv7AoVP-9" style="edgeStyle=orthogonalEdgeStyle;rounded=0;orthogonalLoop=1;jettySize=auto;html=1;exitX=0.5;exitY=1;exitDx=0;exitDy=0;entryX=0.5;entryY=0;entryDx=0;entryDy=0;" edge="1" parent="1" source="afZm7BKk1HQ2YWv7AoVP-6" target="afZm7BKk1HQ2YWv7AoVP-3">
          <mxGeometry relative="1" as="geometry" />
        </mxCell>
        <mxCell id="afZm7BKk1HQ2YWv7AoVP-6" value="" style="shape=rhombus;perimeter=rhombusPerimeter;whiteSpace=wrap;html=1;align=center;" vertex="1" parent="1">
          <mxGeometry x="80" y="200" width="80" height="40" as="geometry" />
        </mxCell>
        <mxCell id="afZm7BKk1HQ2YWv7AoVP-10" value="Médico" style="swimlane;childLayout=stackLayout;horizontal=1;startSize=50;horizontalStack=0;rounded=1;fontSize=14;fontStyle=0;strokeWidth=2;resizeParent=0;resizeLast=1;shadow=0;dashed=0;align=center;arcSize=4;whiteSpace=wrap;html=1;" vertex="1" parent="1">
          <mxGeometry x="320" y="280" width="160" height="120" as="geometry" />
        </mxCell>
        <mxCell id="afZm7BKk1HQ2YWv7AoVP-11" value="&lt;div&gt;Nome&lt;/div&gt;&lt;div&gt;CRM&lt;/div&gt;&lt;div&gt;Telefone&lt;/div&gt;&lt;div&gt;Especialidade&lt;br&gt;&lt;/div&gt;" style="align=left;strokeColor=none;fillColor=none;spacingLeft=4;fontSize=12;verticalAlign=top;resizable=0;rotatable=0;part=1;html=1;" vertex="1" parent="afZm7BKk1HQ2YWv7AoVP-10">
          <mxGeometry y="50" width="160" height="70" as="geometry" />
        </mxCell>
        <mxCell id="afZm7BKk1HQ2YWv7AoVP-13" value="Mãe" style="swimlane;childLayout=stackLayout;horizontal=1;startSize=50;horizontalStack=0;rounded=1;fontSize=14;fontStyle=0;strokeWidth=2;resizeParent=0;resizeLast=1;shadow=0;dashed=0;align=center;arcSize=4;whiteSpace=wrap;html=1;" vertex="1" parent="1">
          <mxGeometry x="600" y="280" width="160" height="120" as="geometry" />
        </mxCell>
        <mxCell id="afZm7BKk1HQ2YWv7AoVP-14" value="&lt;div&gt;Nome&lt;/div&gt;&lt;div&gt;Endereço&lt;/div&gt;&lt;div&gt;Telefone&lt;/div&gt;&lt;div&gt;Nascimento&lt;br&gt;&lt;/div&gt;" style="align=left;strokeColor=none;fillColor=none;spacingLeft=4;fontSize=12;verticalAlign=top;resizable=0;rotatable=0;part=1;html=1;" vertex="1" parent="afZm7BKk1HQ2YWv7AoVP-13">
          <mxGeometry y="50" width="160" height="70" as="geometry" />
        </mxCell>
        <mxCell id="afZm7BKk1HQ2YWv7AoVP-21" style="edgeStyle=orthogonalEdgeStyle;rounded=0;orthogonalLoop=1;jettySize=auto;html=1;exitX=0;exitY=0.5;exitDx=0;exitDy=0;entryX=0.5;entryY=1;entryDx=0;entryDy=0;" edge="1" parent="1" source="afZm7BKk1HQ2YWv7AoVP-17" target="afZm7BKk1HQ2YWv7AoVP-4">
          <mxGeometry relative="1" as="geometry">
            <mxPoint x="120" y="445" as="targetPoint" />
          </mxGeometry>
        </mxCell>
        <mxCell id="afZm7BKk1HQ2YWv7AoVP-23" style="edgeStyle=orthogonalEdgeStyle;rounded=0;orthogonalLoop=1;jettySize=auto;html=1;exitX=1;exitY=0.5;exitDx=0;exitDy=0;entryX=0.5;entryY=1;entryDx=0;entryDy=0;" edge="1" parent="1" source="afZm7BKk1HQ2YWv7AoVP-17" target="afZm7BKk1HQ2YWv7AoVP-13">
          <mxGeometry relative="1" as="geometry" />
        </mxCell>
        <mxCell id="afZm7BKk1HQ2YWv7AoVP-24" style="edgeStyle=orthogonalEdgeStyle;rounded=0;orthogonalLoop=1;jettySize=auto;html=1;exitX=0.5;exitY=0;exitDx=0;exitDy=0;entryX=0.5;entryY=1;entryDx=0;entryDy=0;" edge="1" parent="1" source="afZm7BKk1HQ2YWv7AoVP-17" target="afZm7BKk1HQ2YWv7AoVP-10">
          <mxGeometry relative="1" as="geometry" />
        </mxCell>
        <mxCell id="afZm7BKk1HQ2YWv7AoVP-17" value="Parto" style="shape=rhombus;perimeter=rhombusPerimeter;whiteSpace=wrap;html=1;align=center;" vertex="1" parent="1">
          <mxGeometry x="360" y="420" width="80" height="50" as="geometry" />
        </mxCell>
        <mxCell id="afZm7BKk1HQ2YWv7AoVP-25" value="1" style="text;html=1;align=center;verticalAlign=middle;resizable=0;points=[];autosize=1;strokeColor=none;fillColor=none;" vertex="1" parent="1">
          <mxGeometry x="225" y="418" width="30" height="30" as="geometry" />
        </mxCell>
        <mxCell id="afZm7BKk1HQ2YWv7AoVP-26" value="1" style="text;html=1;align=center;verticalAlign=middle;resizable=0;points=[];autosize=1;strokeColor=none;fillColor=none;" vertex="1" parent="1">
          <mxGeometry x="545" y="418" width="30" height="30" as="geometry" />
        </mxCell>
        <mxCell id="afZm7BKk1HQ2YWv7AoVP-27" value="N" style="text;html=1;align=center;verticalAlign=middle;resizable=0;points=[];autosize=1;strokeColor=none;fillColor=none;" vertex="1" parent="1">
          <mxGeometry x="115" y="158" width="30" height="30" as="geometry" />
        </mxCell>
        <mxCell id="afZm7BKk1HQ2YWv7AoVP-28" value="1" style="text;html=1;align=center;verticalAlign=middle;resizable=0;points=[];autosize=1;strokeColor=none;fillColor=none;" vertex="1" parent="1">
          <mxGeometry x="125" y="248" width="30" height="30" as="geometry" />
        </mxCell>
      </root>
    </mxGraphModel>
  </diagram>
</mxfile>
